<svg width="60" height="55" viewBox="0 0 60 55" fill="none" xmlns="http://www.w3.org/2000/svg">
<path d="M5.2329e-08 27.1129C5.2329e-08 28.7759 1.39906 30.1255 3.125 30.1255L36.1313 30.1255L26.8563 39.1631L31.25 43.3988L45.9969 29.2789C47.2157 28.101 47.2157 26.1248 45.9969 24.9469L31.25 10.8271L26.8563 15.0628L36.1313 24.1004L3.125 24.1004C1.39906 24.1004 -0.000312448 25.45 5.2329e-08 27.1129ZM37.5 51.2133C37.5 52.8762 38.9 54.2258 40.625 54.2258H46.875C53.7782 54.2258 59.3751 48.8304 59.3751 42.1757L59.3751 12.0502C59.3751 5.39552 53.7782 6.10352e-05 46.875 6.10352e-05H40.625C38.9 6.10352e-05 37.5 1.34968 37.5 3.0126C37.5 4.67553 38.9 6.02515 40.625 6.02515H46.875C50.3282 6.02515 53.1251 8.72137 53.1251 12.0502L53.1251 42.1757C53.1251 45.5045 50.3282 48.2007 46.875 48.2007H40.625C38.9 48.2007 37.5 49.5504 37.5 51.2133Z" fill="black"/>
</svg>
